<?xml version="1.0" encoding="utf-8" standalone="no"?>
<!DOCTYPE svg PUBLIC "-//W3C//DTD SVG 1.1//EN"
  "http://www.w3.org/Graphics/SVG/1.1/DTD/svg11.dtd">
<svg xmlns:xlink="http://www.w3.org/1999/xlink"
     viewBox="0 0 460.8 345.6"
     xmlns="http://www.w3.org/2000/svg"
     version="1.1">
 <metadata>
  <rdf:RDF xmlns:dc="http://purl.org/dc/elements/1.1/" xmlns:cc="http://creativecommons.org/ns#" xmlns:rdf="http://www.w3.org/1999/02/22-rdf-syntax-ns#">
   <cc:Work>
    <dc:type rdf:resource="http://purl.org/dc/dcmitype/StillImage"/>
    <dc:format>image/svg+xml</dc:format>
    <dc:creator>
     <cc:Agent>
      <dc:title>Matplotlib v3.11.0, https://matplotlib.org/</dc:title>
     </cc:Agent>
    </dc:creator>
   </cc:Work>
  </rdf:RDF>
 </metadata>
 <defs>
  <style type="text/css">*{stroke-linejoin: round; stroke-linecap: butt}</style>
 </defs>
 <g id="figure_1">
  <g id="patch_1">
   <path d="M 0 345.6
L 460.8 345.6
L 460.8 0
L 0 0
z
" style="fill: #ffffff"/>
  </g>
  <g id="axes_1">
   <g id="patch_2">
    <path d="M 210.799459 311.598979
L 457.79976 311.598979
L 457.79976 3.00024
L 210.799459 3.00024
z
" style="fill: #ffffff"/>
   </g>
   <g id="patch_3">
    <path d="M 210.799459 297.571763
L 231.970913 297.571763
L 231.970913 278.55181
L 210.799459 278.55181
z
" clip-path="url(#pa2755115fe)" style="fill: #1f77b4"/>
   </g>
   <g id="patch_4">
    <path d="M 210.799459 273.796822
L 234.323297 273.796822
L 234.323297 254.776869
L 210.799459 254.776869
z
" clip-path="url(#pa2755115fe)" style="fill: #1f77b4"/>
   </g>
   <g id="patch_5">
    <path d="M 210.799459 250.021881
L 234.323297 250.021881
L 234.323297 231.001928
L 210.799459 231.001928
z
" clip-path="url(#pa2755115fe)" style="fill: #1f77b4"/>
   </g>
   <g id="patch_6">
    <path d="M 210.799459 226.246939
L 234.323297 226.246939
L 234.323297 207.226986
L 210.799459 207.226986
z
" clip-path="url(#pa2755115fe)" style="fill: #1f77b4"/>
   </g>
   <g id="patch_7">
    <path d="M 210.799459 202.471998
L 241.380448 202.471998
L 241.380448 183.452045
L 210.799459 183.452045
z
" clip-path="url(#pa2755115fe)" style="fill: #1f77b4"/>
   </g>
   <g id="patch_8">
    <path d="M 210.799459 178.697057
L 243.732832 178.697057
L 243.732832 159.677104
L 210.799459 159.677104
z
" clip-path="url(#pa2755115fe)" style="fill: #1f77b4"/>
   </g>
   <g id="patch_9">
    <path d="M 210.799459 154.922115
L 243.732832 154.922115
L 243.732832 135.902162
L 210.799459 135.902162
z
" clip-path="url(#pa2755115fe)" style="fill: #1f77b4"/>
   </g>
   <g id="patch_10">
    <path d="M 210.799459 131.147174
L 246.085216 131.147174
L 246.085216 112.127221
L 210.799459 112.127221
z
" clip-path="url(#pa2755115fe)" style="fill: #1f77b4"/>
   </g>
   <g id="patch_11">
    <path d="M 210.799459 107.372233
L 250.789984 107.372233
L 250.789984 88.352279
L 210.799459 88.352279
z
" clip-path="url(#pa2755115fe)" style="fill: #1f77b4"/>
   </g>
   <g id="patch_12">
    <path d="M 210.799459 83.597291
L 267.25667 83.597291
L 267.25667 64.577338
L 210.799459 64.577338
z
" clip-path="url(#pa2755115fe)" style="fill: #1f77b4"/>
   </g>
   <g id="patch_13">
    <path d="M 210.799459 59.82235
L 309.599579 59.82235
L 309.599579 40.802397
L 210.799459 40.802397
z
" clip-path="url(#pa2755115fe)" style="fill: #1f77b4"/>
   </g>
   <g id="patch_14">
    <path d="M 210.799459 36.047408
L 446.037841 36.047408
L 446.037841 17.027455
L 210.799459 17.027455
z
" clip-path="url(#pa2755115fe)" style="fill: #1f77b4"/>
   </g>
   <g id="matplotlib.axis_1">
    <g id="xtick_1">
     <g id="line2d_1">
      <defs>
       <path id="m348e1bb15c" d="M 0 0
L 0 3.5
" style="stroke: #000000; stroke-width: 0.8"/>
      </defs>
      <g>
       <use xlink:href="#m348e1bb15c" x="210.799459" y="311.598979" style="stroke: #000000; stroke-width: 0.8"/>
      </g>
     </g>
     <g id="text_1">
      <!-- 0 -->
      <g transform="translate(207.618209 326.196635) scale(0.1 -0.1)">
       <defs>
        <path id="DejaVuSans-13" d="M 2034 4250
Q 1547 4250 1301 3770
Q 1056 3291 1056 2328
Q 1056 1369 1301 889
Q 1547 409 2034 409
Q 2525 409 2770 889
Q 3016 1369 3016 2328
Q 3016 3291 2770 3770
Q 2525 4250 2034 4250
z
M 2034 4750
Q 2819 4750 3233 4129
Q 3647 3509 3647 2328
Q 3647 1150 3233 529
Q 2819 -91 2034 -91
Q 1250 -91 836 529
Q 422 1150 422 2328
Q 422 3509 836 4129
Q 1250 4750 2034 4750
z
" transform="scale(0.015625)"/>
       </defs>
       <use xlink:href="#DejaVuSans-13"/>
      </g>
     </g>
    </g>
    <g id="xtick_2">
     <g id="line2d_2">
      <g>
       <use xlink:href="#m348e1bb15c" x="257.847135" y="311.598979" style="stroke: #000000; stroke-width: 0.8"/>
      </g>
     </g>
     <g id="text_2">
      <!-- 20 -->
      <g transform="translate(251.484635 326.196635) scale(0.1 -0.1)">
       <defs>
        <path id="DejaVuSans-15" d="M 1228 531
L 3431 531
L 3431 0
L 469 0
L 469 531
Q 828 903 1448 1529
Q 2069 2156 2228 2338
Q 2531 2678 2651 2914
Q 2772 3150 2772 3378
Q 2772 3750 2511 3984
Q 2250 4219 1831 4219
Q 1534 4219 1204 4116
Q 875 4013 500 3803
L 500 4441
Q 881 4594 1212 4672
Q 1544 4750 1819 4750
Q 2544 4750 2975 4387
Q 3406 4025 3406 3419
Q 3406 3131 3298 2873
Q 3191 2616 2906 2266
Q 2828 2175 2409 1742
Q 1991 1309 1228 531
z
" transform="scale(0.015625)"/>
       </defs>
       <use xlink:href="#DejaVuSans-15"/>
       <use xlink:href="#DejaVuSans-13" transform="translate(63.625 0)"/>
      </g>
     </g>
    </g>
    <g id="xtick_3">
     <g id="line2d_3">
      <g>
       <use xlink:href="#m348e1bb15c" x="304.894812" y="311.598979" style="stroke: #000000; stroke-width: 0.8"/>
      </g>
     </g>
     <g id="text_3">
      <!-- 40 -->
      <g transform="translate(298.532312 326.196635) scale(0.1 -0.1)">
       <defs>
        <path id="DejaVuSans-17" d="M 2419 4116
L 825 1625
L 2419 1625
L 2419 4116
z
M 2253 4666
L 3047 4666
L 3047 1625
L 3713 1625
L 3713 1100
L 3047 1100
L 3047 0
L 2419 0
L 2419 1100
L 313 1100
L 313 1709
L 2253 4666
z
" transform="scale(0.015625)"/>
       </defs>
       <use xlink:href="#DejaVuSans-17"/>
       <use xlink:href="#DejaVuSans-13" transform="translate(63.625 0)"/>
      </g>
     </g>
    </g>
    <g id="xtick_4">
     <g id="line2d_4">
      <g>
       <use xlink:href="#m348e1bb15c" x="351.942488" y="311.598979" style="stroke: #000000; stroke-width: 0.8"/>
      </g>
     </g>
     <g id="text_4">
      <!-- 60 -->
      <g transform="translate(345.579988 326.196635) scale(0.1 -0.1)">
       <defs>
        <path id="DejaVuSans-19" d="M 2113 2584
Q 1688 2584 1439 2293
Q 1191 2003 1191 1497
Q 1191 994 1439 701
Q 1688 409 2113 409
Q 2538 409 2786 701
Q 3034 994 3034 1497
Q 3034 2003 2786 2293
Q 2538 2584 2113 2584
z
M 3366 4563
L 3366 3988
Q 3128 4100 2886 4159
Q 2644 4219 2406 4219
Q 1781 4219 1451 3797
Q 1122 3375 1075 2522
Q 1259 2794 1537 2939
Q 1816 3084 2150 3084
Q 2853 3084 3261 2657
Q 3669 2231 3669 1497
Q 3669 778 3244 343
Q 2819 -91 2113 -91
Q 1303 -91 875 529
Q 447 1150 447 2328
Q 447 3434 972 4092
Q 1497 4750 2381 4750
Q 2619 4750 2861 4703
Q 3103 4656 3366 4563
z
" transform="scale(0.015625)"/>
       </defs>
       <use xlink:href="#DejaVuSans-19"/>
       <use xlink:href="#DejaVuSans-13" transform="translate(63.625 0)"/>
      </g>
     </g>
    </g>
    <g id="xtick_5">
     <g id="line2d_5">
      <g>
       <use xlink:href="#m348e1bb15c" x="398.990164" y="311.598979" style="stroke: #000000; stroke-width: 0.8"/>
      </g>
     </g>
     <g id="text_5">
      <!-- 80 -->
      <g transform="translate(392.627664 326.196635) scale(0.1 -0.1)">
       <defs>
        <path id="DejaVuSans-1b" d="M 2034 2216
Q 1584 2216 1326 1975
Q 1069 1734 1069 1313
Q 1069 891 1326 650
Q 1584 409 2034 409
Q 2484 409 2743 651
Q 3003 894 3003 1313
Q 3003 1734 2745 1975
Q 2488 2216 2034 2216
z
M 1403 2484
Q 997 2584 770 2862
Q 544 3141 544 3541
Q 544 4100 942 4425
Q 1341 4750 2034 4750
Q 2731 4750 3128 4425
Q 3525 4100 3525 3541
Q 3525 3141 3298 2862
Q 3072 2584 2669 2484
Q 3125 2378 3379 2068
Q 3634 1759 3634 1313
Q 3634 634 3220 271
Q 2806 -91 2034 -91
Q 1263 -91 848 271
Q 434 634 434 1313
Q 434 1759 690 2068
Q 947 2378 1403 2484
z
M 1172 3481
Q 1172 3119 1398 2916
Q 1625 2713 2034 2713
Q 2441 2713 2670 2916
Q 2900 3119 2900 3481
Q 2900 3844 2670 4047
Q 2441 4250 2034 4250
Q 1625 4250 1398 4047
Q 1172 3844 1172 3481
z
" transform="scale(0.015625)"/>
       </defs>
       <use xlink:href="#DejaVuSans-1b"/>
       <use xlink:href="#DejaVuSans-13" transform="translate(63.625 0)"/>
      </g>
     </g>
    </g>
    <g id="xtick_6">
     <g id="line2d_6">
      <g>
       <use xlink:href="#m348e1bb15c" x="446.037841" y="311.598979" style="stroke: #000000; stroke-width: 0.8"/>
      </g>
     </g>
     <g id="text_6">
      <!-- 100 -->
      <g transform="translate(436.494091 326.196635) scale(0.1 -0.1)">
       <defs>
        <path id="DejaVuSans-14" d="M 794 531
L 1825 531
L 1825 4091
L 703 3866
L 703 4441
L 1819 4666
L 2450 4666
L 2450 531
L 3481 531
L 3481 0
L 794 0
L 794 531
z
" transform="scale(0.015625)"/>
       </defs>
       <use xlink:href="#DejaVuSans-14"/>
       <use xlink:href="#DejaVuSans-13" transform="translate(63.625 0)"/>
       <use xlink:href="#DejaVuSans-13" transform="translate(127.25 0)"/>
      </g>
     </g>
    </g>
    <g id="text_7">
     <!-- Respondents -->
     <g transform="translate(301.981641 340.197416) scale(0.1 -0.1)">
      <defs>
       <path id="DejaVuSans-35" d="M 2841 2188
Q 3044 2119 3236 1894
Q 3428 1669 3622 1275
L 4263 0
L 3584 0
L 2988 1197
Q 2756 1666 2539 1819
Q 2322 1972 1947 1972
L 1259 1972
L 1259 0
L 628 0
L 628 4666
L 2053 4666
Q 2853 4666 3247 4331
Q 3641 3997 3641 3322
Q 3641 2881 3436 2590
Q 3231 2300 2841 2188
z
M 1259 4147
L 1259 2491
L 2053 2491
Q 2509 2491 2742 2702
Q 2975 2913 2975 3322
Q 2975 3731 2742 3939
Q 2509 4147 2053 4147
L 1259 4147
z
" transform="scale(0.015625)"/>
       <path id="DejaVuSans-48" d="M 3597 1894
L 3597 1613
L 953 1613
Q 991 1019 1311 708
Q 1631 397 2203 397
Q 2534 397 2845 478
Q 3156 559 3463 722
L 3463 178
Q 3153 47 2828 -22
Q 2503 -91 2169 -91
Q 1331 -91 842 396
Q 353 884 353 1716
Q 353 2575 817 3079
Q 1281 3584 2069 3584
Q 2775 3584 3186 3129
Q 3597 2675 3597 1894
z
M 3022 2063
Q 3016 2534 2758 2815
Q 2500 3097 2075 3097
Q 1594 3097 1305 2825
Q 1016 2553 972 2059
L 3022 2063
z
" transform="scale(0.015625)"/>
       <path id="DejaVuSans-56" d="M 2834 3397
L 2834 2853
Q 2591 2978 2328 3040
Q 2066 3103 1784 3103
Q 1356 3103 1142 2972
Q 928 2841 928 2578
Q 928 2378 1081 2264
Q 1234 2150 1697 2047
L 1894 2003
Q 2506 1872 2764 1633
Q 3022 1394 3022 966
Q 3022 478 2636 193
Q 2250 -91 1575 -91
Q 1294 -91 989 -36
Q 684 19 347 128
L 347 722
Q 666 556 975 473
Q 1284 391 1588 391
Q 1994 391 2212 530
Q 2431 669 2431 922
Q 2431 1156 2273 1281
Q 2116 1406 1581 1522
L 1381 1569
Q 847 1681 609 1914
Q 372 2147 372 2553
Q 372 3047 722 3315
Q 1072 3584 1716 3584
Q 2034 3584 2315 3537
Q 2597 3491 2834 3397
z
" transform="scale(0.015625)"/>
       <path id="DejaVuSans-53" d="M 1159 525
L 1159 -1331
L 581 -1331
L 581 3500
L 1159 3500
L 1159 2969
Q 1341 3281 1617 3432
Q 1894 3584 2278 3584
Q 2916 3584 3314 3078
Q 3713 2572 3713 1747
Q 3713 922 3314 415
Q 2916 -91 2278 -91
Q 1894 -91 1617 61
Q 1341 213 1159 525
z
M 3116 1747
Q 3116 2381 2855 2742
Q 2594 3103 2138 3103
Q 1681 3103 1420 2742
Q 1159 2381 1159 1747
Q 1159 1113 1420 752
Q 1681 391 2138 391
Q 2594 391 2855 752
Q 3116 1113 3116 1747
z
" transform="scale(0.015625)"/>
       <path id="DejaVuSans-52" d="M 1959 3097
Q 1497 3097 1228 2736
Q 959 2375 959 1747
Q 959 1119 1226 758
Q 1494 397 1959 397
Q 2419 397 2687 759
Q 2956 1122 2956 1747
Q 2956 2369 2687 2733
Q 2419 3097 1959 3097
z
M 1959 3584
Q 2709 3584 3137 3096
Q 3566 2609 3566 1747
Q 3566 888 3137 398
Q 2709 -91 1959 -91
Q 1206 -91 779 398
Q 353 888 353 1747
Q 353 2609 779 3096
Q 1206 3584 1959 3584
z
" transform="scale(0.015625)"/>
       <path id="DejaVuSans-51" d="M 3513 2113
L 3513 0
L 2938 0
L 2938 2094
Q 2938 2591 2744 2837
Q 2550 3084 2163 3084
Q 1697 3084 1428 2787
Q 1159 2491 1159 1978
L 1159 0
L 581 0
L 581 3500
L 1159 3500
L 1159 2956
Q 1366 3272 1645 3428
Q 1925 3584 2291 3584
Q 2894 3584 3203 3211
Q 3513 2838 3513 2113
z
" transform="scale(0.015625)"/>
       <path id="DejaVuSans-47" d="M 2906 2969
L 2906 4863
L 3481 4863
L 3481 0
L 2906 0
L 2906 525
Q 2725 213 2448 61
Q 2172 -91 1784 -91
Q 1150 -91 751 415
Q 353 922 353 1747
Q 353 2572 751 3078
Q 1150 3584 1784 3584
Q 2172 3584 2448 3432
Q 2725 3281 2906 2969
z
M 947 1747
Q 947 1113 1208 752
Q 1469 391 1925 391
Q 2381 391 2643 752
Q 2906 1113 2906 1747
Q 2906 2381 2643 2742
Q 2381 3103 1925 3103
Q 1469 3103 1208 2742
Q 947 2381 947 1747
z
" transform="scale(0.015625)"/>
       <path id="DejaVuSans-57" d="M 1172 4494
L 1172 3500
L 2356 3500
L 2356 3053
L 1172 3053
L 1172 1153
Q 1172 725 1289 603
Q 1406 481 1766 481
L 2356 481
L 2356 0
L 1766 0
Q 1100 0 847 248
Q 594 497 594 1153
L 594 3053
L 172 3053
L 172 3500
L 594 3500
L 594 4494
L 1172 4494
z
" transform="scale(0.015625)"/>
      </defs>
      <use xlink:href="#DejaVuSans-35"/>
      <use xlink:href="#DejaVuSans-48" transform="translate(65 0)"/>
      <use xlink:href="#DejaVuSans-56" transform="translate(126.53125 0)"/>
      <use xlink:href="#DejaVuSans-53" transform="translate(178.625 0)"/>
      <use xlink:href="#DejaVuSans-52" transform="translate(242.109375 0)"/>
      <use xlink:href="#DejaVuSans-51" transform="translate(303.296875 0)"/>
      <use xlink:href="#DejaVuSans-47" transform="translate(366.671875 0)"/>
      <use xlink:href="#DejaVuSans-48" transform="translate(430.15625 0)"/>
      <use xlink:href="#DejaVuSans-51" transform="translate(491.6875 0)"/>
      <use xlink:href="#DejaVuSans-57" transform="translate(555.0625 0)"/>
      <use xlink:href="#DejaVuSans-56" transform="translate(594.265625 0)"/>
     </g>
    </g>
   </g>
   <g id="matplotlib.axis_2">
    <g id="ytick_1">
     <g id="line2d_7">
      <defs>
       <path id="m16aa428751" d="M 0 0
L -3.5 0
" style="stroke: #000000; stroke-width: 0.8"/>
      </defs>
      <g>
       <use xlink:href="#m16aa428751" x="210.799459" y="288.061787" style="stroke: #000000; stroke-width: 0.8"/>
      </g>
     </g>
     <g id="text_8">
      <!-- work -&gt; market -->
      <g transform="translate(125.769771 291.861006) scale(0.1 -0.1)">
       <defs>
        <path id="DejaVuSans-5a" d="M 269 3500
L 844 3500
L 1563 769
L 2278 3500
L 2956 3500
L 3675 769
L 4391 3500
L 4966 3500
L 4050 0
L 3372 0
L 2619 2869
L 1863 0
L 1184 0
L 269 3500
z
" transform="scale(0.015625)"/>
        <path id="DejaVuSans-55" d="M 2631 2963
Q 2534 3019 2420 3045
Q 2306 3072 2169 3072
Q 1681 3072 1420 2755
Q 1159 2438 1159 1844
L 1159 0
L 581 0
L 581 3500
L 1159 3500
L 1159 2956
Q 1341 3275 1631 3429
Q 1922 3584 2338 3584
Q 2397 3584 2469 3576
Q 2541 3569 2628 3553
L 2631 2963
z
" transform="scale(0.015625)"/>
        <path id="DejaVuSans-4e" d="M 581 4863
L 1159 4863
L 1159 1991
L 2875 3500
L 3609 3500
L 1753 1863
L 3688 0
L 2938 0
L 1159 1709
L 1159 0
L 581 0
L 581 4863
z
" transform="scale(0.015625)"/>
        <path id="DejaVuSans-3" transform="scale(0.015625)"/>
        <path id="DejaVuSans-10" d="M 313 2009
L 1997 2009
L 1997 1497
L 313 1497
L 313 2009
z
" transform="scale(0.015625)"/>
        <path id="DejaVuSans-21" d="M 678 3150
L 678 3719
L 4684 2266
L 4684 1747
L 678 294
L 678 863
L 3897 2003
L 678 3150
z
" transform="scale(0.015625)"/>
        <path id="DejaVuSans-50" d="M 3328 2828
Q 3544 3216 3844 3400
Q 4144 3584 4550 3584
Q 5097 3584 5394 3201
Q 5691 2819 5691 2113
L 5691 0
L 5113 0
L 5113 2094
Q 5113 2597 4934 2840
Q 4756 3084 4391 3084
Q 3944 3084 3684 2787
Q 3425 2491 3425 1978
L 3425 0
L 2847 0
L 2847 2094
Q 2847 2600 2669 2842
Q 2491 3084 2119 3084
Q 1678 3084 1418 2786
Q 1159 2488 1159 1978
L 1159 0
L 581 0
L 581 3500
L 1159 3500
L 1159 2956
Q 1356 3278 1631 3431
Q 1906 3584 2284 3584
Q 2666 3584 2933 3390
Q 3200 3197 3328 2828
z
" transform="scale(0.015625)"/>
        <path id="DejaVuSans-44" d="M 2194 1759
Q 1497 1759 1228 1600
Q 959 1441 959 1056
Q 959 750 1161 570
Q 1363 391 1709 391
Q 2188 391 2477 730
Q 2766 1069 2766 1631
L 2766 1759
L 2194 1759
z
M 3341 1997
L 3341 0
L 2766 0
L 2766 531
Q 2569 213 2275 61
Q 1981 -91 1556 -91
Q 1019 -91 701 211
Q 384 513 384 1019
Q 384 1609 779 1909
Q 1175 2209 1959 2209
L 2766 2209
L 2766 2266
Q 2766 2663 2505 2880
Q 2244 3097 1772 3097
Q 1472 3097 1187 3025
Q 903 2953 641 2809
L 641 3341
Q 956 3463 1253 3523
Q 1550 3584 1831 3584
Q 2591 3584 2966 3190
Q 3341 2797 3341 1997
z
" transform="scale(0.015625)"/>
       </defs>
       <use xlink:href="#DejaVuSans-5a"/>
       <use xlink:href="#DejaVuSans-52" transform="translate(81.78125 0)"/>
       <use xlink:href="#DejaVuSans-55" transform="translate(142.96875 0)"/>
       <use xlink:href="#DejaVuSans-4e" transform="translate(184.078125 0)"/>
       <use xlink:href="#DejaVuSans-3" transform="translate(241.984375 0)"/>
       <use xlink:href="#DejaVuSans-10" transform="translate(273.765625 0)"/>
       <use xlink:href="#DejaVuSans-21" transform="translate(309.84375 0)"/>
       <use xlink:href="#DejaVuSans-3" transform="translate(393.640625 0)"/>
       <use xlink:href="#DejaVuSans-50" transform="translate(425.421875 0)"/>
       <use xlink:href="#DejaVuSans-44" transform="translate(522.828125 0)"/>
       <use xlink:href="#DejaVuSans-55" transform="translate(584.109375 0)"/>
       <use xlink:href="#DejaVuSans-4e" transform="translate(625.21875 0)"/>
       <use xlink:href="#DejaVuSans-48" transform="translate(679.5625 0)"/>
       <use xlink:href="#DejaVuSans-57" transform="translate(741.09375 0)"/>
      </g>
     </g>
    </g>
    <g id="ytick_2">
     <g id="line2d_8">
      <g>
       <use xlink:href="#m16aa428751" x="210.799459" y="264.286845" style="stroke: #000000; stroke-width: 0.8"/>
      </g>
     </g>
     <g id="text_9">
      <!-- work -&gt; home -&gt; recreation -&gt; home -->
      <g transform="translate(17.001021 268.086064) scale(0.1 -0.1)">
       <defs>
        <path id="DejaVuSans-4b" d="M 3513 2113
L 3513 0
L 2938 0
L 2938 2094
Q 2938 2591 2744 2837
Q 2550 3084 2163 3084
Q 1697 3084 1428 2787
Q 1159 2491 1159 1978
L 1159 0
L 581 0
L 581 4863
L 1159 4863
L 1159 2956
Q 1366 3272 1645 3428
Q 1925 3584 2291 3584
Q 2894 3584 3203 3211
Q 3513 2838 3513 2113
z
" transform="scale(0.015625)"/>
        <path id="DejaVuSans-46" d="M 3122 3366
L 3122 2828
Q 2878 2963 2633 3030
Q 2388 3097 2138 3097
Q 1578 3097 1268 2742
Q 959 2388 959 1747
Q 959 1106 1268 751
Q 1578 397 2138 397
Q 2388 397 2633 464
Q 2878 531 3122 666
L 3122 134
Q 2881 22 2623 -34
Q 2366 -91 2075 -91
Q 1284 -91 818 406
Q 353 903 353 1747
Q 353 2603 823 3093
Q 1294 3584 2113 3584
Q 2378 3584 2631 3529
Q 2884 3475 3122 3366
z
" transform="scale(0.015625)"/>
        <path id="DejaVuSans-4c" d="M 603 3500
L 1178 3500
L 1178 0
L 603 0
L 603 3500
z
M 603 4863
L 1178 4863
L 1178 4134
L 603 4134
L 603 4863
z
" transform="scale(0.015625)"/>
       </defs>
       <use xlink:href="#DejaVuSans-5a"/>
       <use xlink:href="#DejaVuSans-52" transform="translate(81.78125 0)"/>
       <use xlink:href="#DejaVuSans-55" transform="translate(142.96875 0)"/>
       <use xlink:href="#DejaVuSans-4e" transform="translate(184.078125 0)"/>
       <use xlink:href="#DejaVuSans-3" transform="translate(241.984375 0)"/>
       <use xlink:href="#DejaVuSans-10" transform="translate(273.765625 0)"/>
       <use xlink:href="#DejaVuSans-21" transform="translate(309.84375 0)"/>
       <use xlink:href="#DejaVuSans-3" transform="translate(393.640625 0)"/>
       <use xlink:href="#DejaVuSans-4b" transform="translate(425.421875 0)"/>
       <use xlink:href="#DejaVuSans-52" transform="translate(488.796875 0)"/>
       <use xlink:href="#DejaVuSans-50" transform="translate(549.984375 0)"/>
       <use xlink:href="#DejaVuSans-48" transform="translate(647.390625 0)"/>
       <use xlink:href="#DejaVuSans-3" transform="translate(708.921875 0)"/>
       <use xlink:href="#DejaVuSans-10" transform="translate(740.703125 0)"/>
       <use xlink:href="#DejaVuSans-21" transform="translate(776.78125 0)"/>
       <use xlink:href="#DejaVuSans-3" transform="translate(860.578125 0)"/>
       <use xlink:href="#DejaVuSans-55" transform="translate(892.359375 0)"/>
       <use xlink:href="#DejaVuSans-48" transform="translate(931.265625 0)"/>
       <use xlink:href="#DejaVuSans-46" transform="translate(992.796875 0)"/>
       <use xlink:href="#DejaVuSans-55" transform="translate(1047.78125 0)"/>
       <use xlink:href="#DejaVuSans-48" transform="translate(1086.6875 0)"/>
       <use xlink:href="#DejaVuSans-44" transform="translate(1148.21875 0)"/>
       <use xlink:href="#DejaVuSans-57" transform="translate(1209.5 0)"/>
       <use xlink:href="#DejaVuSans-4c" transform="translate(1248.703125 0)"/>
       <use xlink:href="#DejaVuSans-52" transform="translate(1276.484375 0)"/>
       <use xlink:href="#DejaVuSans-51" transform="translate(1337.671875 0)"/>
       <use xlink:href="#DejaVuSans-3" transform="translate(1401.046875 0)"/>
       <use xlink:href="#DejaVuSans-10" transform="translate(1432.828125 0)"/>
       <use xlink:href="#DejaVuSans-21" transform="translate(1468.90625 0)"/>
       <use xlink:href="#DejaVuSans-3" transform="translate(1552.703125 0)"/>
       <use xlink:href="#DejaVuSans-4b" transform="translate(1584.484375 0)"/>
       <use xlink:href="#DejaVuSans-52" transform="translate(1647.859375 0)"/>
       <use xlink:href="#DejaVuSans-50" transform="translate(1709.046875 0)"/>
       <use xlink:href="#DejaVuSans-48" transform="translate(1806.453125 0)"/>
      </g>
     </g>
    </g>
    <g id="ytick_3">
     <g id="line2d_9">
      <g>
       <use xlink:href="#m16aa428751" x="210.799459" y="240.511904" style="stroke: #000000; stroke-width: 0.8"/>
      </g>
     </g>
     <g id="text_10">
      <!-- work -&gt; work -&gt; home -->
      <g transform="translate(90.365084 244.311123) scale(0.1 -0.1)">
       <use xlink:href="#DejaVuSans-5a"/>
       <use xlink:href="#DejaVuSans-52" transform="translate(81.78125 0)"/>
       <use xlink:href="#DejaVuSans-55" transform="translate(142.96875 0)"/>
       <use xlink:href="#DejaVuSans-4e" transform="translate(184.078125 0)"/>
       <use xlink:href="#DejaVuSans-3" transform="translate(241.984375 0)"/>
       <use xlink:href="#DejaVuSans-10" transform="translate(273.765625 0)"/>
       <use xlink:href="#DejaVuSans-21" transform="translate(309.84375 0)"/>
       <use xlink:href="#DejaVuSans-3" transform="translate(393.640625 0)"/>
       <use xlink:href="#DejaVuSans-5a" transform="translate(425.421875 0)"/>
       <use xlink:href="#DejaVuSans-52" transform="translate(507.203125 0)"/>
       <use xlink:href="#DejaVuSans-55" transform="translate(568.390625 0)"/>
       <use xlink:href="#DejaVuSans-4e" transform="translate(609.5 0)"/>
       <use xlink:href="#DejaVuSans-3" transform="translate(667.40625 0)"/>
       <use xlink:href="#DejaVuSans-10" transform="translate(699.1875 0)"/>
       <use xlink:href="#DejaVuSans-21" transform="translate(735.265625 0)"/>
       <use xlink:href="#DejaVuSans-3" transform="translate(819.0625 0)"/>
       <use xlink:href="#DejaVuSans-4b" transform="translate(850.84375 0)"/>
       <use xlink:href="#DejaVuSans-52" transform="translate(914.21875 0)"/>
       <use xlink:href="#DejaVuSans-50" transform="translate(975.40625 0)"/>
       <use xlink:href="#DejaVuSans-48" transform="translate(1072.8125 0)"/>
      </g>
     </g>
    </g>
    <g id="ytick_4">
     <g id="line2d_10">
      <g>
       <use xlink:href="#m16aa428751" x="210.799459" y="216.736963" style="stroke: #000000; stroke-width: 0.8"/>
      </g>
     </g>
     <g id="text_11">
      <!-- work -&gt; work -&gt; recreation -->
      <g transform="translate(67.846334 220.536182) scale(0.1 -0.1)">
       <use xlink:href="#DejaVuSans-5a"/>
       <use xlink:href="#DejaVuSans-52" transform="translate(81.78125 0)"/>
       <use xlink:href="#DejaVuSans-55" transform="translate(142.96875 0)"/>
       <use xlink:href="#DejaVuSans-4e" transform="translate(184.078125 0)"/>
       <use xlink:href="#DejaVuSans-3" transform="translate(241.984375 0)"/>
       <use xlink:href="#DejaVuSans-10" transform="translate(273.765625 0)"/>
       <use xlink:href="#DejaVuSans-21" transform="translate(309.84375 0)"/>
       <use xlink:href="#DejaVuSans-3" transform="translate(393.640625 0)"/>
       <use xlink:href="#DejaVuSans-5a" transform="translate(425.421875 0)"/>
       <use xlink:href="#DejaVuSans-52" transform="translate(507.203125 0)"/>
       <use xlink:href="#DejaVuSans-55" transform="translate(568.390625 0)"/>
       <use xlink:href="#DejaVuSans-4e" transform="translate(609.5 0)"/>
       <use xlink:href="#DejaVuSans-3" transform="translate(667.40625 0)"/>
       <use xlink:href="#DejaVuSans-10" transform="translate(699.1875 0)"/>
       <use xlink:href="#DejaVuSans-21" transform="translate(735.265625 0)"/>
       <use xlink:href="#DejaVuSans-3" transform="translate(819.0625 0)"/>
       <use xlink:href="#DejaVuSans-55" transform="translate(850.84375 0)"/>
       <use xlink:href="#DejaVuSans-48" transform="translate(889.75 0)"/>
       <use xlink:href="#DejaVuSans-46" transform="translate(951.28125 0)"/>
       <use xlink:href="#DejaVuSans-55" transform="translate(1006.265625 0)"/>
       <use xlink:href="#DejaVuSans-48" transform="translate(1045.171875 0)"/>
       <use xlink:href="#DejaVuSans-44" transform="translate(1106.703125 0)"/>
       <use xlink:href="#DejaVuSans-57" transform="translate(1167.984375 0)"/>
       <use xlink:href="#DejaVuSans-4c" transform="translate(1207.1875 0)"/>
       <use xlink:href="#DejaVuSans-52" transform="translate(1234.96875 0)"/>
       <use xlink:href="#DejaVuSans-51" transform="translate(1296.15625 0)"/>
      </g>
     </g>
    </g>
    <g id="ytick_5">
     <g id="line2d_11">
      <g>
       <use xlink:href="#m16aa428751" x="210.799459" y="192.962021" style="stroke: #000000; stroke-width: 0.8"/>
      </g>
     </g>
     <g id="text_12">
      <!-- work -&gt; recreation -->
      <g transform="translate(110.388521 196.76124) scale(0.1 -0.1)">
       <use xlink:href="#DejaVuSans-5a"/>
       <use xlink:href="#DejaVuSans-52" transform="translate(81.78125 0)"/>
       <use xlink:href="#DejaVuSans-55" transform="translate(142.96875 0)"/>
       <use xlink:href="#DejaVuSans-4e" transform="translate(184.078125 0)"/>
       <use xlink:href="#DejaVuSans-3" transform="translate(241.984375 0)"/>
       <use xlink:href="#DejaVuSans-10" transform="translate(273.765625 0)"/>
       <use xlink:href="#DejaVuSans-21" transform="translate(309.84375 0)"/>
       <use xlink:href="#DejaVuSans-3" transform="translate(393.640625 0)"/>
       <use xlink:href="#DejaVuSans-55" transform="translate(425.421875 0)"/>
       <use xlink:href="#DejaVuSans-48" transform="translate(464.328125 0)"/>
       <use xlink:href="#DejaVuSans-46" transform="translate(525.859375 0)"/>
       <use xlink:href="#DejaVuSans-55" transform="translate(580.84375 0)"/>
       <use xlink:href="#DejaVuSans-48" transform="translate(619.75 0)"/>
       <use xlink:href="#DejaVuSans-44" transform="translate(681.28125 0)"/>
       <use xlink:href="#DejaVuSans-57" transform="translate(742.5625 0)"/>
       <use xlink:href="#DejaVuSans-4c" transform="translate(781.765625 0)"/>
       <use xlink:href="#DejaVuSans-52" transform="translate(809.546875 0)"/>
       <use xlink:href="#DejaVuSans-51" transform="translate(870.734375 0)"/>
      </g>
     </g>
    </g>
    <g id="ytick_6">
     <g id="line2d_12">
      <g>
       <use xlink:href="#m16aa428751" x="210.799459" y="169.18708" style="stroke: #000000; stroke-width: 0.8"/>
      </g>
     </g>
     <g id="text_13">
      <!-- education -&gt; home -->
      <g transform="translate(107.485396 172.986299) scale(0.1 -0.1)">
       <defs>
        <path id="DejaVuSans-58" d="M 544 1381
L 544 3500
L 1119 3500
L 1119 1403
Q 1119 906 1312 657
Q 1506 409 1894 409
Q 2359 409 2629 706
Q 2900 1003 2900 1516
L 2900 3500
L 3475 3500
L 3475 0
L 2900 0
L 2900 538
Q 2691 219 2414 64
Q 2138 -91 1772 -91
Q 1169 -91 856 284
Q 544 659 544 1381
z
M 1991 3584
L 1991 3584
z
" transform="scale(0.015625)"/>
       </defs>
       <use xlink:href="#DejaVuSans-48"/>
       <use xlink:href="#DejaVuSans-47" transform="translate(61.53125 0)"/>
       <use xlink:href="#DejaVuSans-58" transform="translate(125.015625 0)"/>
       <use xlink:href="#DejaVuSans-46" transform="translate(188.390625 0)"/>
       <use xlink:href="#DejaVuSans-44" transform="translate(243.375 0)"/>
       <use xlink:href="#DejaVuSans-57" transform="translate(304.65625 0)"/>
       <use xlink:href="#DejaVuSans-4c" transform="translate(343.859375 0)"/>
       <use xlink:href="#DejaVuSans-52" transform="translate(371.640625 0)"/>
       <use xlink:href="#DejaVuSans-51" transform="translate(432.828125 0)"/>
       <use xlink:href="#DejaVuSans-3" transform="translate(496.203125 0)"/>
       <use xlink:href="#DejaVuSans-10" transform="translate(527.984375 0)"/>
       <use xlink:href="#DejaVuSans-21" transform="translate(564.0625 0)"/>
       <use xlink:href="#DejaVuSans-3" transform="translate(647.859375 0)"/>
       <use xlink:href="#DejaVuSans-4b" transform="translate(679.640625 0)"/>
       <use xlink:href="#DejaVuSans-52" transform="translate(743.015625 0)"/>
       <use xlink:href="#DejaVuSans-50" transform="translate(804.203125 0)"/>
       <use xlink:href="#DejaVuSans-48" transform="translate(901.609375 0)"/>
      </g>
     </g>
    </g>
    <g id="ytick_7">
     <g id="line2d_13">
      <g>
       <use xlink:href="#m16aa428751" x="210.799459" y="145.412139" style="stroke: #000000; stroke-width: 0.8"/>
      </g>
     </g>
     <g id="text_14">
      <!-- work -&gt; home -&gt; recreation -->
      <g transform="translate(63.694771 149.211357) scale(0.1 -0.1)">
       <use xlink:href="#DejaVuSans-5a"/>
       <use xlink:href="#DejaVuSans-52" transform="translate(81.78125 0)"/>
       <use xlink:href="#DejaVuSans-55" transform="translate(142.96875 0)"/>
       <use xlink:href="#DejaVuSans-4e" transform="translate(184.078125 0)"/>
       <use xlink:href="#DejaVuSans-3" transform="translate(241.984375 0)"/>
       <use xlink:href="#DejaVuSans-10" transform="translate(273.765625 0)"/>
       <use xlink:href="#DejaVuSans-21" transform="translate(309.84375 0)"/>
       <use xlink:href="#DejaVuSans-3" transform="translate(393.640625 0)"/>
       <use xlink:href="#DejaVuSans-4b" transform="translate(425.421875 0)"/>
       <use xlink:href="#DejaVuSans-52" transform="translate(488.796875 0)"/>
       <use xlink:href="#DejaVuSans-50" transform="translate(549.984375 0)"/>
       <use xlink:href="#DejaVuSans-48" transform="translate(647.390625 0)"/>
       <use xlink:href="#DejaVuSans-3" transform="translate(708.921875 0)"/>
       <use xlink:href="#DejaVuSans-10" transform="translate(740.703125 0)"/>
       <use xlink:href="#DejaVuSans-21" transform="translate(776.78125 0)"/>
       <use xlink:href="#DejaVuSans-3" transform="translate(860.578125 0)"/>
       <use xlink:href="#DejaVuSans-55" transform="translate(892.359375 0)"/>
       <use xlink:href="#DejaVuSans-48" transform="translate(931.265625 0)"/>
       <use xlink:href="#DejaVuSans-46" transform="translate(992.796875 0)"/>
       <use xlink:href="#DejaVuSans-55" transform="translate(1047.78125 0)"/>
       <use xlink:href="#DejaVuSans-48" transform="translate(1086.6875 0)"/>
       <use xlink:href="#DejaVuSans-44" transform="translate(1148.21875 0)"/>
       <use xlink:href="#DejaVuSans-57" transform="translate(1209.5 0)"/>
       <use xlink:href="#DejaVuSans-4c" transform="translate(1248.703125 0)"/>
       <use xlink:href="#DejaVuSans-52" transform="translate(1276.484375 0)"/>
       <use xlink:href="#DejaVuSans-51" transform="translate(1337.671875 0)"/>
      </g>
     </g>
    </g>
    <g id="ytick_8">
     <g id="line2d_14">
      <g>
       <use xlink:href="#m16aa428751" x="210.799459" y="121.637197" style="stroke: #000000; stroke-width: 0.8"/>
      </g>
     </g>
     <g id="text_15">
      <!-- other -&gt; home -->
      <g transform="translate(130.465084 125.436416) scale(0.1 -0.1)">
       <use xlink:href="#DejaVuSans-52"/>
       <use xlink:href="#DejaVuSans-57" transform="translate(61.1875 0)"/>
       <use xlink:href="#DejaVuSans-4b" transform="translate(100.390625 0)"/>
       <use xlink:href="#DejaVuSans-48" transform="translate(163.765625 0)"/>
       <use xlink:href="#DejaVuSans-55" transform="translate(225.296875 0)"/>
       <use xlink:href="#DejaVuSans-3" transform="translate(266.40625 0)"/>
       <use xlink:href="#DejaVuSans-10" transform="translate(298.1875 0)"/>
       <use xlink:href="#DejaVuSans-21" transform="translate(334.265625 0)"/>
       <use xlink:href="#DejaVuSans-3" transform="translate(418.0625 0)"/>
       <use xlink:href="#DejaVuSans-4b" transform="translate(449.84375 0)"/>
       <use xlink:href="#DejaVuSans-52" transform="translate(513.21875 0)"/>
       <use xlink:href="#DejaVuSans-50" transform="translate(574.40625 0)"/>
       <use xlink:href="#DejaVuSans-48" transform="translate(671.8125 0)"/>
      </g>
     </g>
    </g>
    <g id="ytick_9">
     <g id="line2d_15">
      <g>
       <use xlink:href="#m16aa428751" x="210.799459" y="97.862256" style="stroke: #000000; stroke-width: 0.8"/>
      </g>
     </g>
     <g id="text_16">
      <!-- recreation -&gt; recreation -->
      <g transform="translate(83.718209 101.661475) scale(0.1 -0.1)">
       <use xlink:href="#DejaVuSans-55"/>
       <use xlink:href="#DejaVuSans-48" transform="translate(38.90625 0)"/>
       <use xlink:href="#DejaVuSans-46" transform="translate(100.4375 0)"/>
       <use xlink:href="#DejaVuSans-55" transform="translate(155.421875 0)"/>
       <use xlink:href="#DejaVuSans-48" transform="translate(194.328125 0)"/>
       <use xlink:href="#DejaVuSans-44" transform="translate(255.859375 0)"/>
       <use xlink:href="#DejaVuSans-57" transform="translate(317.140625 0)"/>
       <use xlink:href="#DejaVuSans-4c" transform="translate(356.34375 0)"/>
       <use xlink:href="#DejaVuSans-52" transform="translate(384.125 0)"/>
       <use xlink:href="#DejaVuSans-51" transform="translate(445.3125 0)"/>
       <use xlink:href="#DejaVuSans-3" transform="translate(508.6875 0)"/>
       <use xlink:href="#DejaVuSans-10" transform="translate(540.46875 0)"/>
       <use xlink:href="#DejaVuSans-21" transform="translate(576.546875 0)"/>
       <use xlink:href="#DejaVuSans-3" transform="translate(660.34375 0)"/>
       <use xlink:href="#DejaVuSans-55" transform="translate(692.125 0)"/>
       <use xlink:href="#DejaVuSans-48" transform="translate(731.03125 0)"/>
       <use xlink:href="#DejaVuSans-46" transform="translate(792.5625 0)"/>
       <use xlink:href="#DejaVuSans-55" transform="translate(847.546875 0)"/>
       <use xlink:href="#DejaVuSans-48" transform="translate(886.453125 0)"/>
       <use xlink:href="#DejaVuSans-44" transform="translate(947.984375 0)"/>
       <use xlink:href="#DejaVuSans-57" transform="translate(1009.265625 0)"/>
       <use xlink:href="#DejaVuSans-4c" transform="translate(1048.46875 0)"/>
       <use xlink:href="#DejaVuSans-52" transform="translate(1076.25 0)"/>
       <use xlink:href="#DejaVuSans-51" transform="translate(1137.4375 0)"/>
      </g>
     </g>
    </g>
    <g id="ytick_10">
     <g id="line2d_16">
      <g>
       <use xlink:href="#m16aa428751" x="210.799459" y="74.087315" style="stroke: #000000; stroke-width: 0.8"/>
      </g>
     </g>
     <g id="text_17">
      <!-- recreation -&gt; home -->
      <g transform="translate(106.236959 77.886533) scale(0.1 -0.1)">
       <use xlink:href="#DejaVuSans-55"/>
       <use xlink:href="#DejaVuSans-48" transform="translate(38.90625 0)"/>
       <use xlink:href="#DejaVuSans-46" transform="translate(100.4375 0)"/>
       <use xlink:href="#DejaVuSans-55" transform="translate(155.421875 0)"/>
       <use xlink:href="#DejaVuSans-48" transform="translate(194.328125 0)"/>
       <use xlink:href="#DejaVuSans-44" transform="translate(255.859375 0)"/>
       <use xlink:href="#DejaVuSans-57" transform="translate(317.140625 0)"/>
       <use xlink:href="#DejaVuSans-4c" transform="translate(356.34375 0)"/>
       <use xlink:href="#DejaVuSans-52" transform="translate(384.125 0)"/>
       <use xlink:href="#DejaVuSans-51" transform="translate(445.3125 0)"/>
       <use xlink:href="#DejaVuSans-3" transform="translate(508.6875 0)"/>
       <use xlink:href="#DejaVuSans-10" transform="translate(540.46875 0)"/>
       <use xlink:href="#DejaVuSans-21" transform="translate(576.546875 0)"/>
       <use xlink:href="#DejaVuSans-3" transform="translate(660.34375 0)"/>
       <use xlink:href="#DejaVuSans-4b" transform="translate(692.125 0)"/>
       <use xlink:href="#DejaVuSans-52" transform="translate(755.5 0)"/>
       <use xlink:href="#DejaVuSans-50" transform="translate(816.6875 0)"/>
       <use xlink:href="#DejaVuSans-48" transform="translate(914.09375 0)"/>
      </g>
     </g>
    </g>
    <g id="ytick_11">
     <g id="line2d_17">
      <g>
       <use xlink:href="#m16aa428751" x="210.799459" y="50.312373" style="stroke: #000000; stroke-width: 0.8"/>
      </g>
     </g>
     <g id="text_18">
      <!-- work -&gt; work -->
      <g transform="translate(137.058834 54.111592) scale(0.1 -0.1)">
       <use xlink:href="#DejaVuSans-5a"/>
       <use xlink:href="#DejaVuSans-52" transform="translate(81.78125 0)"/>
       <use xlink:href="#DejaVuSans-55" transform="translate(142.96875 0)"/>
       <use xlink:href="#DejaVuSans-4e" transform="translate(184.078125 0)"/>
       <use xlink:href="#DejaVuSans-3" transform="translate(241.984375 0)"/>
       <use xlink:href="#DejaVuSans-10" transform="translate(273.765625 0)"/>
       <use xlink:href="#DejaVuSans-21" transform="translate(309.84375 0)"/>
       <use xlink:href="#DejaVuSans-3" transform="translate(393.640625 0)"/>
       <use xlink:href="#DejaVuSans-5a" transform="translate(425.421875 0)"/>
       <use xlink:href="#DejaVuSans-52" transform="translate(507.203125 0)"/>
       <use xlink:href="#DejaVuSans-55" transform="translate(568.390625 0)"/>
       <use xlink:href="#DejaVuSans-4e" transform="translate(609.5 0)"/>
      </g>
     </g>
    </g>
    <g id="ytick_12">
     <g id="line2d_18">
      <g>
       <use xlink:href="#m16aa428751" x="210.799459" y="26.537432" style="stroke: #000000; stroke-width: 0.8"/>
      </g>
     </g>
     <g id="text_19">
      <!-- work -&gt; home -->
      <g transform="translate(132.907271 30.336651) scale(0.1 -0.1)">
       <use xlink:href="#DejaVuSans-5a"/>
       <use xlink:href="#DejaVuSans-52" transform="translate(81.78125 0)"/>
       <use xlink:href="#DejaVuSans-55" transform="translate(142.96875 0)"/>
       <use xlink:href="#DejaVuSans-4e" transform="translate(184.078125 0)"/>
       <use xlink:href="#DejaVuSans-3" transform="translate(241.984375 0)"/>
       <use xlink:href="#DejaVuSans-10" transform="translate(273.765625 0)"/>
       <use xlink:href="#DejaVuSans-21" transform="translate(309.84375 0)"/>
       <use xlink:href="#DejaVuSans-3" transform="translate(393.640625 0)"/>
       <use xlink:href="#DejaVuSans-4b" transform="translate(425.421875 0)"/>
       <use xlink:href="#DejaVuSans-52" transform="translate(488.796875 0)"/>
       <use xlink:href="#DejaVuSans-50" transform="translate(549.984375 0)"/>
       <use xlink:href="#DejaVuSans-48" transform="translate(647.390625 0)"/>
      </g>
     </g>
    </g>
    <g id="text_20">
     <!-- Purpose chain -->
     <g transform="translate(10.598677 192.494922) rotate(-90) scale(0.1 -0.1)">
      <defs>
       <path id="DejaVuSans-33" d="M 1259 4147
L 1259 2394
L 2053 2394
Q 2494 2394 2734 2622
Q 2975 2850 2975 3272
Q 2975 3691 2734 3919
Q 2494 4147 2053 4147
L 1259 4147
z
M 628 4666
L 2053 4666
Q 2838 4666 3239 4311
Q 3641 3956 3641 3272
Q 3641 2581 3239 2228
Q 2838 1875 2053 1875
L 1259 1875
L 1259 0
L 628 0
L 628 4666
z
" transform="scale(0.015625)"/>
      </defs>
      <use xlink:href="#DejaVuSans-33"/>
      <use xlink:href="#DejaVuSans-58" transform="translate(58.546875 0)"/>
      <use xlink:href="#DejaVuSans-55" transform="translate(121.921875 0)"/>
      <use xlink:href="#DejaVuSans-53" transform="translate(163.03125 0)"/>
      <use xlink:href="#DejaVuSans-52" transform="translate(226.515625 0)"/>
      <use xlink:href="#DejaVuSans-56" transform="translate(287.703125 0)"/>
      <use xlink:href="#DejaVuSans-48" transform="translate(339.796875 0)"/>
      <use xlink:href="#DejaVuSans-3" transform="translate(401.328125 0)"/>
      <use xlink:href="#DejaVuSans-46" transform="translate(433.109375 0)"/>
      <use xlink:href="#DejaVuSans-4b" transform="translate(488.09375 0)"/>
      <use xlink:href="#DejaVuSans-44" transform="translate(551.46875 0)"/>
      <use xlink:href="#DejaVuSans-4c" transform="translate(612.75 0)"/>
      <use xlink:href="#DejaVuSans-51" transform="translate(640.53125 0)"/>
     </g>
    </g>
   </g>
   <g id="patch_15">
    <path d="M 210.799459 311.598979
L 210.799459 3.00024
" style="fill: none; stroke: #000000; stroke-width: 0.8; stroke-linejoin: miter; stroke-linecap: square"/>
   </g>
   <g id="patch_16">
    <path d="M 457.79976 311.598979
L 457.79976 3.00024
" style="fill: none; stroke: #000000; stroke-width: 0.8; stroke-linejoin: miter; stroke-linecap: square"/>
   </g>
   <g id="patch_17">
    <path d="M 210.799459 311.598979
L 457.79976 311.598979
" style="fill: none; stroke: #000000; stroke-width: 0.8; stroke-linejoin: miter; stroke-linecap: square"/>
   </g>
   <g id="patch_18">
    <path d="M 210.799459 3.00024
L 457.79976 3.00024
" style="fill: none; stroke: #000000; stroke-width: 0.8; stroke-linejoin: miter; stroke-linecap: square"/>
   </g>
  </g>
 </g>
 <defs>
  <clipPath id="pa2755115fe">
   <rect x="210.799459" y="3.00024" width="247.000301" height="308.598739"/>
  </clipPath>
 </defs>
</svg>
